<svg width="23.999999999999996" height="23.999999999999996" xmlns="http://www.w3.org/2000/svg" xmlns:svg="http://www.w3.org/2000/svg">
 <g class="layer">
  <title>Layer 1</title>
  <path d="m0,22.84l0,-21.67c0,-0.01 0,-0.01 0,-0.02c0,-0.63 0.51,-1.14 1.14,-1.14c0.2,0 0.39,0.05 0.56,0.14l-0.01,0l18.71,10.49l0,-10.04c0,-0.33 0.27,-0.6 0.6,-0.6l1.2,0c0.33,0 0.6,0.27 0.6,0.6l0,22.8l0,0c0,0.33 -0.27,0.6 -0.6,0.6l0,0l-1.2,0c-0.33,0 -0.6,-0.27 -0.6,-0.6l0,0l0,-10.04l-18.71,10.5c-0.16,0.09 -0.35,0.14 -0.55,0.14c-0.63,-0.01 -1.14,-0.52 -1.14,-1.15c0,-0.01 0,-0.01 0,-0.01l0,0z" fill="#ffffff" id="svg_1"/>
 </g>
</svg>